# xmcd
#
# Track frame offsets:
#	150
#	18478
#	32221
#	46064
#	60546
#	78919
#	96900
#	107985
#	130576
#	155074
#	172441
#	189726
#	210156
#
# Disc length: 3069 seconds
#
# Revision: 1
# Processed by: cddbd v1.5.1PL2 Copyright (c) Steve Scherf et al.
# Submitted via: audiograbber 1.83.01
#
DISCID=ae0bfb0d
DTITLE=Willy Clay Band - Rebecca Drive
DYEAR=2005
DGENRE=Country
TTITLE0=Soldier
TTITLE1=Stay The Night
TTITLE2=Satisfied Mind
TTITLE3=Brand New Home
TTITLE4=Give A Little
TTITLE5=Back In Style
TTITLE6=Peace and Harmony
TTITLE7=From Here To Heaven
TTITLE8=The Bottle
TTITLE9=If You Leave Me Now
TTITLE10=Homesick
TTITLE11=Money's All Gone
TTITLE12=Tryin' To Be Elvis
EXTD=
EXTT0=
EXTT1=
EXTT2=
EXTT3=
EXTT4=
EXTT5=
EXTT6=
EXTT7=
EXTT8=
EXTT9=
EXTT10=
EXTT11=
EXTT12=
PLAYORDER=
